<?xml version="1.0" encoding="utf-8"?>
<!-- Generator: Adobe Illustrator 25.2.0, SVG Export Plug-In . SVG Version: 6.00 Build 0)  -->
<svg version="1.1" id="Calque_1" xmlns="http://www.w3.org/2000/svg" xmlns:xlink="http://www.w3.org/1999/xlink" x="0px" y="0px"
	 viewBox="0 0 188.4 141.7" style="enable-background:new 0 0 198.4 141.7;" xml:space="preserve">
<style type="text/css">
	.st0{fill:#3E4798;}
	.st1{fill:#46B593;}
	.st2{fill:none;stroke:#3E4798;stroke-width:5.3;stroke-miterlimit:10;}
	.st3{fill:#92CDB5;}
	.st4{fill:#EC6775;}
	.st5{fill:#E30613;}
	.st6{opacity:0.5;clip-path:url(#SVGID_2_);}
	.st7{fill:#FFFFFF;stroke:#FFFFFF;stroke-width:0.5244;stroke-miterlimit:10;}
</style>
<g>
	<g>
		<path class="st0" d="M146.7,46.9h6.2l4.1,15.6l3.8-15.6h6.2l-6.2,21.9l5.4,18.3h-6.2l-0.2-0.8L157,75l-4.1,15.6h-6.2l6.2-21.9
			L146.7,46.9z"/>
		<path class="st1" d="M36.2,47.4v18.2h6.2V46.9h6.2v43.7h-6.2V71.9h-6.2v18.8H30V47.4H36.2z"/>
		<path class="st1" d="M70.6,55.6v26.2c0,6.2-3.1,9.4-9.4,9.4s-9.4-3.1-9.4-9.4V55.6c0-6.2,3.1-9.4,9.4-9.4S70.6,49.4,70.6,55.6z
			 M61.2,52.5c-2.1,0-3.1,1-3.1,3.1v26.2c0,2.1,1,3.1,3.1,3.1s3.1-1,3.1-3.1V55.6C64.3,53.6,63.3,52.5,61.2,52.5z"/>
		<path class="st1" d="M73.7,90.6V46.9h9.4c6.2,0,9.4,3.1,9.4,9.4v7.8c0,6.2-3.1,9.4-9.4,9.4H80v17.2H73.7z M80,53.1v14.1h3.1
			c2.1,0,3.1-1,3.1-3.1v-7.8c0-2.1-1-3.1-3.1-3.1H80z"/>
		<path class="st0" d="M124.4,53.1h-5.6v37.5h-6.2V53.1h-5.6v-6.2h17.5V53.1z"/>
		<path class="st0" d="M145.3,55.6v26.2c0,6.2-3.1,9.4-9.4,9.4s-9.4-3.1-9.4-9.4V55.6c0-6.2,3.1-9.4,9.4-9.4S145.3,49.4,145.3,55.6z
			 M135.9,52.5c-2.1,0-3.1,1-3.1,3.1v26.2c0,2.1,1,3.1,3.1,3.1s3.1-1,3.1-3.1V55.6C139,53.6,138,52.5,135.9,52.5z"/>
	</g>
	<line class="st2" x1="164.5" y1="96.9" x2="30" y2="96.9"/>
	<polygon class="st0" points="172.8,96.9 166.6,89.4 160.5,89.4 162.6,96.9 160.5,104.5 166.6,104.5 	"/>
	<polygon class="st1" points="33.2,40.8 25.6,47 25.6,53.1 33.2,51 40.7,53.1 40.7,47 	"/>
	<g>
		<g>
			<path class="st1" d="M105.2,38.6l-1.7,5.8c0,0-1.2,0.3-2.3,0.2c-1.1-0.2-2.3-0.8-2.3-0.8l0-6.1L105.2,38.6z"/>
			<g>
				<g>
					<path class="st1" d="M97.7,92.5l6.2-44.8c-0.9-0.3-1.9-0.6-3-0.8c-1.1-0.2-2.2-0.2-3.1-0.1l-6.2,44.8
						C91.3,93.4,97.5,94.2,97.7,92.5z"/>
				</g>
				
					<ellipse transform="matrix(0.1376 -0.9905 0.9905 0.1376 40.0699 140.6838)" class="st3" cx="100.8" cy="47.3" rx="0.4" ry="3.1"/>
				<path class="st4" d="M99.6,56.8c-1.1-0.3-2.9-0.2-3.4,1.2c0.2,0.4,0.6,0.6,1.7,0.8s3.5,0.2,4.4,0.1
					C101.1,58.3,101,57.2,99.6,56.8z"/>
			</g>
			
				<ellipse transform="matrix(0.1376 -0.9905 0.9905 0.1376 50.3064 134.1012)" class="st3" cx="102.2" cy="38.2" rx="0.4" ry="3.1"/>
			<path class="st5" d="M99.3,58.2c-1.6,0.7-3.1-0.2-3.1-0.2l0,0.2l0,0l-4.6,33.5c-0.2,1.7,1,3.3,2.6,3.5c1.7,0.2,3.3-1,3.5-2.6
				l4.6-33.5l0.1-0.7C102.4,58.4,101.6,57.2,99.3,58.2z"/>
		</g>
		<g>
			<defs>
				<path id="SVGID_1_" d="M94.2,95.2c1.7,0.2,3.3-1,3.5-2.6l6.2-44.8c-0.9-0.3-1.9-0.6-3-0.8c-1.1-0.2-2.2-0.2-3.1-0.1l-6.2,44.8
					C91.3,93.4,92.5,95,94.2,95.2z"/>
			</defs>
			<clipPath id="SVGID_2_">
				<use xlink:href="#SVGID_1_"  style="overflow:visible;"/>
			</clipPath>
			<g class="st6">
				<g>
					<path class="st7" d="M100.4,51.7c0.3,0,2.3,0.5,4.1,0.1"/>
					<path class="st7" d="M101.3,56.2c0.3,0,1.3,0.2,2,0.1"/>
				</g>
				<g>
					<path class="st7" d="M99.3,60.1c0.3,0,2.3,0.5,4.1,0.1"/>
					<path class="st7" d="M100.2,64.6c0.3,0,1.3,0.2,2,0.1"/>
				</g>
				<g>
					<path class="st7" d="M98.1,68.5c0.3,0,2.3,0.5,4.1,0.1"/>
					<path class="st7" d="M99.1,73c0.3,0,1.3,0.2,2,0.1"/>
				</g>
				<g>
					<path class="st7" d="M97,76.9c0.3,0,2.3,0.5,4.1,0.1"/>
					<path class="st7" d="M97.9,81.4c0.3,0,1.3,0.2,2,0.1"/>
				</g>
				<g>
					<path class="st7" d="M95.8,85.3c0.3,0,2.3,0.5,4.1,0.1"/>
					<path class="st7" d="M96.8,89.7c0.3,0,1.3,0.2,2,0.1"/>
				</g>
			</g>
		</g>
	</g>
</g>
</svg>
