<?xml version="1.0" encoding="utf-8"?>
<!-- Generator: Adobe Illustrator 19.2.1, SVG Export Plug-In . SVG Version: 6.00 Build 0)  -->
<svg version="1.1" id="Calque_1" xmlns="http://www.w3.org/2000/svg" xmlns:xlink="http://www.w3.org/1999/xlink" x="0px" y="0px"
	 viewBox="0 0 283.5 283.5" style="enable-background:new 0 0 283.5 283.5;" xml:space="preserve">
<style type="text/css">
	.st0{fill:#FFFFFF;stroke:#FFFFFF;stroke-width:8;stroke-linecap:round;stroke-linejoin:round;stroke-miterlimit:10;}
	.st1{fill:#333399;stroke:#FFFFFF;stroke-width:2;stroke-linecap:round;stroke-linejoin:round;stroke-miterlimit:10;}
	.st2{fill:#FFFFFF;}
	.st3{fill:none;stroke:#333399;stroke-width:2;stroke-linecap:round;stroke-linejoin:round;stroke-miterlimit:10;}
	.st4{fill:#333399;stroke:#333399;stroke-linecap:round;stroke-linejoin:round;stroke-miterlimit:10;}
	.st5{fill:#3BBB99;stroke:#333399;stroke-linecap:round;stroke-linejoin:round;stroke-miterlimit:10;}
	.st6{fill:none;stroke:#FFFFFF;stroke-width:12;stroke-miterlimit:10;}
	.st7{fill:#3BBB99;stroke:#333399;stroke-width:4;stroke-miterlimit:10;}
	.st8{fill:#333399;}
</style>
<g id="Calque_22">
	<g>
		<path class="st0" d="M239.3,139.5l33.4-19.3l-65.8-38l0,0l-0.9-0.5l-28.4-16.4l0,0l0,0l0,0L46.4,141l0,0l0,0l-24-5.6l11.5,6.7
			l-6.9,0.6v38.5l19.4-1.7l26.1-15.1h0.1l-26.2,15.1l2.1,1.2l-30.8,17.8l79.4,45.8l30.8-17.8l3.5,2v16.1l10.2-10.2l0,0l0,0
			l131.2-75.7l0,0l0,0v-38.5L239.3,139.5L239.3,139.5z M79.8,160.3L79.8,160.3L79.8,160.3L79.8,160.3L79.8,160.3z"/>
		<g>
			<polygon class="st1" points="272.7,158.8 141.6,234.5 46.4,179.5 177.5,103.8 			"/>
			<polygon class="st1" points="27,181.2 46.4,179.5 46.4,141 27,142.7 			"/>
			<polygon class="st1" points="177.6,103.7 46.4,179.5 46.4,141 177.6,65.2 			"/>
			<g>
				<path class="st2" d="M196.5,175.6c5.4,3.1,5.4,8.2,0,11.3l-89.7,51.8c-5.4,3.1-14.2,3.1-19.6,0l-59.7-34.5
					c-5.4-3.1-5.4-8.2,0-11.3l89.7-51.8c5.4-3.1,14.2-3.1,19.6,0L196.5,175.6z"/>
				<path class="st3" d="M196.5,175.6c5.4,3.1,5.4,8.2,0,11.3l-89.7,51.8c-5.4,3.1-14.2,3.1-19.6,0l-59.7-34.5
					c-5.4-3.1-5.4-8.2,0-11.3l89.7-51.8c5.4-3.1,14.2-3.1,19.6,0L196.5,175.6z"/>
			</g>
			<g>
				<polygon class="st1" points="272.7,120.2 141.6,195.9 46.4,140.9 177.5,65.2 				"/>
				<path class="st2" d="M161.1,184.6l30-17.3c-30.7-20.4-23.3-55.9,15.8-85.1l-1.1-0.7C145.9,116,126.8,161.4,161.1,184.6z"/>
				<polygon class="st2" points="154.4,111.1 85.6,150.9 63.1,137.9 131.9,98.1 				"/>
				<polygon class="st2" points="250.7,120.6 220.7,138 203.3,127.9 233.3,110.6 				"/>
			</g>
			<polygon class="st1" points="272.7,158.7 141.5,234.5 141.5,196 272.7,120.2 			"/>
			<polygon class="st1" points="117.5,190.4 22.4,135.4 46.4,141 141.5,196 			"/>
			<polygon class="st1" points="131.3,206.1 141.5,195.9 141.5,234.5 131.3,244.7 			"/>
			<g>
				<path class="st4" d="M92.1,185.2C90.3,175,81.7,173,75.8,173.9c-6,0.9-24.4,11.2-28.1,15.2c-3.6,4-4.1,9.9-4.1,9.9l0,0
					c-0.1,1.9,1.2,4,4,5.6c4.8,2.8,12.1,3.1,16.2,0.7l25.7-14.8C91.8,189,92.7,187.1,92.1,185.2z"/>
				<path class="st5" d="M92.1,185.2C90.3,175,81.7,173,75.8,173.9c-2.6,0.4-7.6,2.6-12.8,5.3c1.3-0.3,2.9,0,4.6,1
					c5,2.9,9.1,10.7,9.1,17.4c0,0.1,0,0.1,0,0.2l12.8-7.4C91.8,189,92.7,187.1,92.1,185.2z"/>
			</g>
			<g>
				<path class="st4" d="M121.2,202c-1.8-10.2-10.4-12.2-16.3-11.3c-6,0.9-24.4,11.2-28.1,15.2c-3.6,4-4.1,9.9-4.1,9.9l0,0
					c-0.1,1.9,1.2,4,4,5.6c4.8,2.8,12.1,3.1,16.2,0.7l25.7-14.8C120.9,205.8,121.8,203.9,121.2,202z"/>
				<path class="st5" d="M121.2,202c-1.8-10.2-10.4-12.2-16.3-11.3c-2.6,0.4-7.6,2.6-12.8,5.3c1.3-0.3,2.9,0,4.6,1
					c5,2.9,9.1,10.7,9.1,17.4c0,0.1,0,0.1,0,0.2l12.8-7.4C120.9,205.8,121.8,203.9,121.2,202z"/>
			</g>
		</g>
		<g>
			<path class="st6" d="M212.2,33.9c-21.8,0-39.5,17.7-39.5,39.5v57.1c0,0.4,0,0.7,0,1.1v73.5c0,21.8,17.7,39.5,39.5,39.5
				s39.5-17.7,39.5-39.5v-80V73.4C251.7,51.6,234,33.9,212.2,33.9z"/>
			<g>
				<path class="st7" d="M251.7,205.1c0,21.8-17.7,39.5-39.5,39.5l0,0c-21.8,0-39.5-17.7-39.5-39.5V73.4c0-21.8,17.7-39.5,39.5-39.5
					l0,0c21.8,0,39.5,17.7,39.5,39.5V205.1z"/>
				<path class="st8" d="M212.2,244.6c21.8,0,39.5-17.7,39.5-39.5v-80c-0.3,6.2-4.9,12.6-13.6,17.7c-16.5,9.5-41.5,10.6-55.8,2.3
					c-6.7-3.9-9.9-9.1-9.6-14.5v74.6C172.7,226.9,190.4,244.6,212.2,244.6z"/>
			</g>
		</g>
	</g>
</g>
</svg>
